<svg width="45" height="48" viewBox="0 0 45 48" fill="none" xmlns="http://www.w3.org/2000/svg">
<path d="M36.999 16.2723C36.5322 16.1029 36.0485 15.9426 35.5504 15.7911C35.6323 15.4389 35.7074 15.0913 35.7742 14.7497C36.8708 9.13909 36.1538 4.61918 33.7056 3.13104C31.358 1.7041 27.5188 3.19191 23.6413 6.74874C23.2685 7.09076 22.8946 7.45288 22.5208 7.83239C22.2718 7.58129 22.0232 7.33864 21.7752 7.10655C17.7115 3.30336 13.6383 1.70064 11.1924 3.19309C8.84714 4.62416 8.1526 8.87331 9.13966 14.1905C9.23498 14.7041 9.3464 15.2285 9.47239 15.7618C8.89592 15.9343 8.33939 16.1182 7.80689 16.3138C3.04266 18.0646 0 20.8085 0 23.6547C0 26.5943 3.26629 29.5427 8.22861 31.3305C8.62022 31.4716 9.02656 31.605 9.44532 31.7316C9.30939 32.3084 9.19116 32.8736 9.09192 33.4248C8.15075 38.6497 8.88575 42.7984 11.2248 44.2205C13.6408 45.689 17.6956 44.1795 21.644 40.5417C21.956 40.2541 22.2692 39.9491 22.583 39.6295C22.9896 40.0423 23.3957 40.4329 23.7995 40.7993C27.624 44.2683 31.4012 45.669 33.7381 44.243C36.1517 42.7702 36.9362 38.3135 35.9178 32.8911C35.84 32.477 35.7495 32.0539 35.6478 31.6233C35.9326 31.5346 36.2121 31.443 36.4847 31.3477C41.6435 29.5461 45 26.6336 45 23.6547C45 20.7982 41.8592 18.0358 36.999 16.2723ZM35.8801 29.4244C35.6341 29.5102 35.3816 29.5932 35.1243 29.6737C34.5548 27.7733 33.7862 25.7525 32.8456 23.6646C33.7432 21.6265 34.4821 19.6315 35.0356 17.7434C35.496 17.8838 35.9428 18.0319 36.3733 18.1882C40.5375 19.6992 43.0776 21.9333 43.0776 23.6547C43.0776 25.4884 40.3344 27.8687 35.8801 29.4244ZM34.0319 33.2846C34.4822 35.6823 34.5465 37.8501 34.2483 39.5448C33.9802 41.0676 33.4413 42.0828 32.7748 42.4894C31.3567 43.3547 28.3239 42.23 25.0532 39.2633C24.6783 38.9232 24.3006 38.5601 23.9218 38.1758C25.1897 36.7141 26.457 35.0148 27.6938 33.1275C29.8692 32.924 31.9245 32.5914 33.7883 32.1372C33.8801 32.5276 33.9617 32.9104 34.0319 33.2846ZM15.3415 42.3399C13.956 42.8557 12.8524 42.8705 12.1854 42.465C10.7659 41.6021 10.1758 38.271 10.9807 33.8027C11.0729 33.291 11.1827 32.7653 11.3092 32.228C13.1526 32.6577 15.1928 32.9668 17.3734 33.1532C18.6185 34.9999 19.9224 36.6973 21.2364 38.1836C20.9493 38.4758 20.6633 38.7539 20.379 39.0159C18.633 40.6246 16.8834 41.7659 15.3415 42.3399ZM8.85034 29.4131C6.6561 28.6226 4.84401 27.5952 3.60191 26.4741C2.4858 25.4666 1.92231 24.4664 1.92231 23.6547C1.92231 21.9276 4.36526 19.7246 8.43967 18.2272C8.93405 18.0455 9.45157 17.8743 9.98864 17.7135C10.5517 19.6442 11.2904 21.6628 12.1818 23.704C11.2789 25.7756 10.5297 27.8264 9.96108 29.7797C9.57821 29.6637 9.20726 29.5416 8.85034 29.4131ZM11.0262 13.8014C10.1806 9.24573 10.7422 5.80913 12.1556 4.94677C13.661 4.02809 16.99 5.33793 20.4987 8.6218C20.723 8.83169 20.9482 9.05137 21.174 9.27866C19.8665 10.7584 18.5746 12.4431 17.3405 14.279C15.2241 14.4857 13.1982 14.8179 11.3356 15.2627C11.2185 14.7661 11.1148 14.2783 11.0262 13.8014ZM30.4372 18.8535C29.9919 18.0428 29.5348 17.2513 29.0688 16.4814C30.5046 16.6727 31.8802 16.9267 33.172 17.2374C32.7842 18.5476 32.3008 19.9175 31.7318 21.3218C31.3236 20.5049 30.8919 19.6813 30.4372 18.8535ZM22.5215 10.7268C23.4082 11.7393 24.2961 12.8698 25.1696 14.0964C24.2894 14.0526 23.3984 14.0298 22.5 14.0298C21.6101 14.0298 20.7256 14.0521 19.851 14.0952C20.7252 12.88 21.6209 11.751 22.5215 10.7268ZM14.555 18.8675C14.1102 19.6805 13.6865 20.4996 13.2847 21.3203C12.7249 19.9209 12.246 18.5448 11.8548 17.216C13.1387 16.9132 14.5078 16.6655 15.9345 16.4778C15.4619 17.2548 15.001 18.0522 14.555 18.8674V18.8675ZM15.9756 30.9762C14.5016 30.8028 13.1119 30.568 11.8283 30.2735C12.2257 28.921 12.7152 27.5155 13.2869 26.086C13.6897 26.906 14.1151 27.7255 14.5626 28.5402H14.5627C15.0186 29.3702 15.4908 30.1833 15.9756 30.9762ZM22.5747 36.7255C21.6635 35.6893 20.7547 34.5431 19.8671 33.3102C20.7288 33.3458 21.6072 33.3641 22.5 33.3641C23.4172 33.3641 24.3239 33.3423 25.2164 33.3004C24.3401 34.5555 23.4553 35.7035 22.5747 36.7255ZM31.7501 26.0131C32.3516 27.4581 32.8586 28.8562 33.2612 30.1857C31.9565 30.4994 30.5477 30.7521 29.0635 30.9399C29.5306 30.1596 29.9918 29.3545 30.4449 28.5263C30.9033 27.6884 31.3386 26.8493 31.7501 26.0131ZM28.7797 27.514C28.0763 28.7996 27.3541 30.0269 26.621 31.1853C25.2856 31.2859 23.9061 31.3378 22.5 31.3378C21.0996 31.3378 19.7375 31.2919 18.4257 31.2022C17.663 30.0285 16.9252 28.7977 16.2262 27.5251H16.2264C15.5293 26.2559 14.8877 24.9761 14.3063 23.7034C14.8875 22.4277 15.5274 21.1464 16.2205 19.8796L16.2204 19.8798C16.9153 18.6096 17.6467 17.3847 18.4024 16.2184C19.7407 16.1118 21.113 16.0561 22.4999 16.0561H22.5C23.8932 16.0561 25.2673 16.1122 26.6052 16.2197C27.3493 17.3775 28.0757 18.5984 28.7734 19.8689C29.479 21.1535 30.1271 22.4263 30.7133 23.6746C30.1289 24.9443 29.4822 26.2299 28.7797 27.514ZM32.7454 4.88649C34.2523 5.80246 34.8383 9.49657 33.8915 14.3407C33.8311 14.6498 33.7631 14.9646 33.6892 15.2837C31.8223 14.8296 29.795 14.4917 27.6724 14.2818C26.4359 12.4258 25.1546 10.7385 23.8684 9.27773C24.2142 8.92709 24.5595 8.59275 24.9034 8.27724C28.2256 5.22977 31.3306 4.02657 32.7454 4.88649ZM22.5 19.4192C24.7192 19.4192 26.5183 21.3155 26.5183 23.6547C26.5183 25.9939 24.7192 27.8903 22.5 27.8903C20.2808 27.8903 18.4817 25.9939 18.4817 23.6547C18.4817 21.3155 20.2808 19.4192 22.5 19.4192Z" fill="#00D8FF"/>
</svg>
