<svg width="45" height="45" viewBox="0 0 45 45" fill="none" xmlns="http://www.w3.org/2000/svg">
<path d="M22.5 8.96484C16.5 8.96484 12.75 11.9648 11.25 17.9648C13.5 14.9648 16.125 13.8398 19.125 14.5898C20.8367 15.0178 22.0601 16.2595 23.4142 17.6341C25.6203 19.8733 28.1734 22.4648 33.75 22.4648C39.75 22.4648 43.5 19.4648 45 13.4648C42.75 16.4648 40.125 17.5898 37.125 16.8398C35.4133 16.4119 34.1899 15.1702 32.8358 13.7956C30.6297 11.5564 28.0766 8.96484 22.5 8.96484ZM11.25 22.4648C5.25 22.4648 1.5 25.4648 0 31.4648C2.25 28.4648 4.875 27.3398 7.875 28.0898C9.58667 28.5178 10.8101 29.7595 12.1642 31.1341C14.3702 33.3733 16.9234 35.9648 22.5 35.9648C28.5 35.9648 32.25 32.9648 33.75 26.9648C31.5 29.9648 28.875 31.0898 25.875 30.3398C24.1633 29.9119 22.9399 28.6702 21.5858 27.2956C19.3797 25.0564 16.8266 22.4648 11.25 22.4648Z" fill="url(#paint0_linear_62_118)"/>
<path d="M22.5 8.96484C16.5 8.96484 12.75 11.9648 11.25 17.9648C13.5 14.9648 16.125 13.8398 19.125 14.5898C20.8367 15.0178 22.0601 16.2595 23.4142 17.6341C25.6203 19.8733 28.1734 22.4648 33.75 22.4648C39.75 22.4648 43.5 19.4648 45 13.4648C42.75 16.4648 40.125 17.5898 37.125 16.8398C35.4133 16.4119 34.1899 15.1702 32.8358 13.7956C30.6297 11.5564 28.0766 8.96484 22.5 8.96484ZM11.25 22.4648C5.25 22.4648 1.5 25.4648 0 31.4648C2.25 28.4648 4.875 27.3398 7.875 28.0898C9.58667 28.5178 10.8101 29.7595 12.1642 31.1341C14.3702 33.3733 16.9234 35.9648 22.5 35.9648C28.5 35.9648 32.25 32.9648 33.75 26.9648C31.5 29.9648 28.875 31.0898 25.875 30.3398C24.1633 29.9119 22.9399 28.6702 21.5858 27.2956C19.3797 25.0564 16.8266 22.4648 11.25 22.4648Z" fill="url(#paint1_linear_62_118)"/>
<defs>
<linearGradient id="paint0_linear_62_118" x1="-1.25" y1="17.6048" x2="37.6149" y2="40.0134" gradientUnits="userSpaceOnUse">
<stop stop-color="#2298BD"/>
<stop offset="1" stop-color="#0ED7B5"/>
</linearGradient>
<linearGradient id="paint1_linear_62_118" x1="-1.25" y1="17.6048" x2="37.6149" y2="40.0134" gradientUnits="userSpaceOnUse">
<stop stop-color="#2298BD"/>
<stop offset="1" stop-color="#0ED7B5"/>
</linearGradient>
</defs>
</svg>
